<svg xmlns="http://www.w3.org/2000/svg" width="226" height="393"><rect x="0" y="0" width="100%" height="100%" fill="#0c323f"></rect><polyline points="37.833,0,75.667,65.529,0,65.529,37.833,0" fill="#ddd" fill-opacity="0.141" stroke="#000" stroke-opacity="0.02" transform="translate(-37.833,0) rotate(180,37.833,32.765)"></polyline><polyline points="37.833,0,75.667,65.529,0,65.529,37.833,0" fill="#ddd" fill-opacity="0.141" stroke="#000" stroke-opacity="0.02" transform="translate(189.167,0) rotate(180,37.833,32.765)"></polyline><polyline points="37.833,0,75.667,65.529,0,65.529,37.833,0" fill="#ddd" fill-opacity="0.107" stroke="#000" stroke-opacity="0.02" transform="translate(0,0) rotate(0,37.833,32.765)"></polyline><polyline points="37.833,0,75.667,65.529,0,65.529,37.833,0" fill="#ddd" fill-opacity="0.037" stroke="#000" stroke-opacity="0.02" transform="translate(37.833,0) rotate(180,37.833,32.765)"></polyline><polyline points="37.833,0,75.667,65.529,0,65.529,37.833,0" fill="#222" fill-opacity="0.081" stroke="#000" stroke-opacity="0.02" transform="translate(75.667,0) rotate(0,37.833,32.765)"></polyline><polyline points="37.833,0,75.667,65.529,0,65.529,37.833,0" fill="#222" fill-opacity="0.046" stroke="#000" stroke-opacity="0.02" transform="translate(113.5,0) rotate(180,37.833,32.765)"></polyline><polyline points="37.833,0,75.667,65.529,0,65.529,37.833,0" fill="#222" fill-opacity="0.15" stroke="#000" stroke-opacity="0.02" transform="translate(151.333,0) rotate(0,37.833,32.765)"></polyline><polyline points="37.833,0,75.667,65.529,0,65.529,37.833,0" fill="#ddd" fill-opacity="0.055" stroke="#000" stroke-opacity="0.02" transform="translate(-37.833,65.529) rotate(0,37.833,32.765)"></polyline><polyline points="37.833,0,75.667,65.529,0,65.529,37.833,0" fill="#ddd" fill-opacity="0.055" stroke="#000" stroke-opacity="0.02" transform="translate(189.167,65.529) rotate(0,37.833,32.765)"></polyline><polyline points="37.833,0,75.667,65.529,0,65.529,37.833,0" fill="#ddd" fill-opacity="0.141" stroke="#000" stroke-opacity="0.02" transform="translate(0,65.529) rotate(180,37.833,32.765)"></polyline><polyline points="37.833,0,75.667,65.529,0,65.529,37.833,0" fill="#222" fill-opacity="0.063" stroke="#000" stroke-opacity="0.02" transform="translate(37.833,65.529) rotate(0,37.833,32.765)"></polyline><polyline points="37.833,0,75.667,65.529,0,65.529,37.833,0" fill="#222" fill-opacity="0.115" stroke="#000" stroke-opacity="0.02" transform="translate(75.667,65.529) rotate(180,37.833,32.765)"></polyline><polyline points="37.833,0,75.667,65.529,0,65.529,37.833,0" fill="#ddd" fill-opacity="0.055" stroke="#000" stroke-opacity="0.02" transform="translate(113.5,65.529) rotate(0,37.833,32.765)"></polyline><polyline points="37.833,0,75.667,65.529,0,65.529,37.833,0" fill="#222" fill-opacity="0.15" stroke="#000" stroke-opacity="0.02" transform="translate(151.333,65.529) rotate(180,37.833,32.765)"></polyline><polyline points="37.833,0,75.667,65.529,0,65.529,37.833,0" fill="#222" fill-opacity="0.046" stroke="#000" stroke-opacity="0.02" transform="translate(-37.833,131.059) rotate(180,37.833,32.765)"></polyline><polyline points="37.833,0,75.667,65.529,0,65.529,37.833,0" fill="#222" fill-opacity="0.046" stroke="#000" stroke-opacity="0.02" transform="translate(189.167,131.059) rotate(180,37.833,32.765)"></polyline><polyline points="37.833,0,75.667,65.529,0,65.529,37.833,0" fill="#ddd" fill-opacity="0.037" stroke="#000" stroke-opacity="0.02" transform="translate(0,131.059) rotate(0,37.833,32.765)"></polyline><polyline points="37.833,0,75.667,65.529,0,65.529,37.833,0" fill="#ddd" fill-opacity="0.089" stroke="#000" stroke-opacity="0.02" transform="translate(37.833,131.059) rotate(180,37.833,32.765)"></polyline><polyline points="37.833,0,75.667,65.529,0,65.529,37.833,0" fill="#ddd" fill-opacity="0.055" stroke="#000" stroke-opacity="0.02" transform="translate(75.667,131.059) rotate(0,37.833,32.765)"></polyline><polyline points="37.833,0,75.667,65.529,0,65.529,37.833,0" fill="#222" fill-opacity="0.046" stroke="#000" stroke-opacity="0.02" transform="translate(113.5,131.059) rotate(180,37.833,32.765)"></polyline><polyline points="37.833,0,75.667,65.529,0,65.529,37.833,0" fill="#ddd" fill-opacity="0.02" stroke="#000" stroke-opacity="0.02" transform="translate(151.333,131.059) rotate(0,37.833,32.765)"></polyline><polyline points="37.833,0,75.667,65.529,0,65.529,37.833,0" fill="#ddd" fill-opacity="0.037" stroke="#000" stroke-opacity="0.02" transform="translate(-37.833,196.588) rotate(0,37.833,32.765)"></polyline><polyline points="37.833,0,75.667,65.529,0,65.529,37.833,0" fill="#ddd" fill-opacity="0.037" stroke="#000" stroke-opacity="0.02" transform="translate(189.167,196.588) rotate(0,37.833,32.765)"></polyline><polyline points="37.833,0,75.667,65.529,0,65.529,37.833,0" fill="#ddd" fill-opacity="0.055" stroke="#000" stroke-opacity="0.02" transform="translate(0,196.588) rotate(180,37.833,32.765)"></polyline><polyline points="37.833,0,75.667,65.529,0,65.529,37.833,0" fill="#ddd" fill-opacity="0.089" stroke="#000" stroke-opacity="0.02" transform="translate(37.833,196.588) rotate(0,37.833,32.765)"></polyline><polyline points="37.833,0,75.667,65.529,0,65.529,37.833,0" fill="#ddd" fill-opacity="0.107" stroke="#000" stroke-opacity="0.02" transform="translate(75.667,196.588) rotate(180,37.833,32.765)"></polyline><polyline points="37.833,0,75.667,65.529,0,65.529,37.833,0" fill="#222" fill-opacity="0.133" stroke="#000" stroke-opacity="0.02" transform="translate(113.5,196.588) rotate(0,37.833,32.765)"></polyline><polyline points="37.833,0,75.667,65.529,0,65.529,37.833,0" fill="#ddd" fill-opacity="0.02" stroke="#000" stroke-opacity="0.02" transform="translate(151.333,196.588) rotate(180,37.833,32.765)"></polyline><polyline points="37.833,0,75.667,65.529,0,65.529,37.833,0" fill="#ddd" fill-opacity="0.037" stroke="#000" stroke-opacity="0.02" transform="translate(-37.833,262.117) rotate(180,37.833,32.765)"></polyline><polyline points="37.833,0,75.667,65.529,0,65.529,37.833,0" fill="#ddd" fill-opacity="0.037" stroke="#000" stroke-opacity="0.02" transform="translate(189.167,262.117) rotate(180,37.833,32.765)"></polyline><polyline points="37.833,0,75.667,65.529,0,65.529,37.833,0" fill="#222" fill-opacity="0.046" stroke="#000" stroke-opacity="0.02" transform="translate(0,262.117) rotate(0,37.833,32.765)"></polyline><polyline points="37.833,0,75.667,65.529,0,65.529,37.833,0" fill="#222" fill-opacity="0.098" stroke="#000" stroke-opacity="0.02" transform="translate(37.833,262.117) rotate(180,37.833,32.765)"></polyline><polyline points="37.833,0,75.667,65.529,0,65.529,37.833,0" fill="#ddd" fill-opacity="0.107" stroke="#000" stroke-opacity="0.02" transform="translate(75.667,262.117) rotate(0,37.833,32.765)"></polyline><polyline points="37.833,0,75.667,65.529,0,65.529,37.833,0" fill="#ddd" fill-opacity="0.037" stroke="#000" stroke-opacity="0.02" transform="translate(113.5,262.117) rotate(180,37.833,32.765)"></polyline><polyline points="37.833,0,75.667,65.529,0,65.529,37.833,0" fill="#222" fill-opacity="0.15" stroke="#000" stroke-opacity="0.02" transform="translate(151.333,262.117) rotate(0,37.833,32.765)"></polyline><polyline points="37.833,0,75.667,65.529,0,65.529,37.833,0" fill="#222" fill-opacity="0.133" stroke="#000" stroke-opacity="0.02" transform="translate(-37.833,327.646) rotate(0,37.833,32.765)"></polyline><polyline points="37.833,0,75.667,65.529,0,65.529,37.833,0" fill="#222" fill-opacity="0.133" stroke="#000" stroke-opacity="0.02" transform="translate(189.167,327.646) rotate(0,37.833,32.765)"></polyline><polyline points="37.833,0,75.667,65.529,0,65.529,37.833,0" fill="#ddd" fill-opacity="0.02" stroke="#000" stroke-opacity="0.02" transform="translate(0,327.646) rotate(180,37.833,32.765)"></polyline><polyline points="37.833,0,75.667,65.529,0,65.529,37.833,0" fill="#ddd" fill-opacity="0.072" stroke="#000" stroke-opacity="0.02" transform="translate(37.833,327.646) rotate(0,37.833,32.765)"></polyline><polyline points="37.833,0,75.667,65.529,0,65.529,37.833,0" fill="#ddd" fill-opacity="0.141" stroke="#000" stroke-opacity="0.02" transform="translate(75.667,327.646) rotate(180,37.833,32.765)"></polyline><polyline points="37.833,0,75.667,65.529,0,65.529,37.833,0" fill="#ddd" fill-opacity="0.02" stroke="#000" stroke-opacity="0.02" transform="translate(113.5,327.646) rotate(0,37.833,32.765)"></polyline><polyline points="37.833,0,75.667,65.529,0,65.529,37.833,0" fill="#222" fill-opacity="0.046" stroke="#000" stroke-opacity="0.02" transform="translate(151.333,327.646) rotate(180,37.833,32.765)"></polyline></svg>